<?xml version="1.0" encoding="utf-8"?>
<!-- Generator: Adobe Illustrator 18.0.0, SVG Export Plug-In . SVG Version: 6.00 Build 0)  -->
<!DOCTYPE svg PUBLIC "-//W3C//DTD SVG 1.1//EN" "http://www.w3.org/Graphics/SVG/1.1/DTD/svg11.dtd">
<svg version="1.1" id="Layer_1" xmlns="http://www.w3.org/2000/svg" xmlns:xlink="http://www.w3.org/1999/xlink" x="0px" y="0px"
	 viewBox="0 0 56.1 57.3" enable-background="new 0 0 56.1 57.3" xml:space="preserve">
<path fill="#FFFFFF" d="M55.6,25.7l-5.9-3.6l0.2-4.9c0-0.5-0.4-0.9-0.8-0.9c-0.2,0-0.4,0.1-0.5,0.2l1-3.8c0.1-0.5-0.2-1-0.6-1.1
	c-0.5-0.1-1,0.2-1.1,0.6l-0.1,0.3L47,12.4l0.2-1.6c0.1-0.5-0.3-0.9-0.8-1c-0.5-0.1-0.9,0.3-1,0.8l-0.2,1.4l-0.6-0.2
	c0.2-0.1,0.3-0.3,0.3-0.6c0.1-0.5-0.2-0.9-0.7-1L42,9.7c0.1-0.2,0.2-0.4,0.1-0.6c-0.1-0.5-0.5-0.8-1-0.7l-1.8,0.3l-2.2-7.9
	C36.9,0.3,36.4,0,36,0.2c-0.5,0.1-0.7,0.6-0.6,1.1l0.9,3.1c-0.1,0-0.2,0-0.3,0l-1.6,0.3l-1.9-2.2c-0.3-0.4-0.9-0.4-1.2-0.1
	C31.1,2.6,31,2.7,31,2.9l-0.8,0.3c-0.3-0.2-0.7-0.1-1,0.2L29,3.6l-0.4-0.3l2.2-1.7c0.4-0.3,0.4-0.9,0.1-1.2S30-0.1,29.6,0.2
	l-4.1,3.3l-0.2,0.1l0.5-0.5c0.3-0.4,0.3-0.9,0-1.3s-0.9-0.3-1.3,0l-1.7,1.7l-0.3-0.2c-0.2-0.1-0.5-0.1-0.7-0.1l-1.7-1
	c-0.1-0.2-0.2-0.3-0.4-0.4c-0.4-0.2-0.8-0.1-1.1,0.2l-2.3-1.4c-0.4-0.3-1-0.1-1.2,0.3s-0.1,1,0.3,1.2l2.4,1.4l-2,3.9l-3.4-0.1
	c-0.5,0-0.9,0.4-0.9,0.9c0,0.5,0.4,0.9,0.9,0.9L15,9.4l0,0.1l-5,2.8c-0.1,0.1-0.2,0.1-0.3,0.2l0-1.6c0-0.5-0.4-0.9-0.9-0.9
	c-0.5,0-0.9,0.4-0.9,0.9L8,15.4c-0.1,0-0.3,0.1-0.4,0.2l-2.4,0.3c-0.5,0.1-0.8,0.5-0.8,1c0,0.2,0.1,0.4,0.3,0.6l-0.6,0.2
	c-0.1,0-0.2,0.1-0.3,0.2l0-0.1c-0.2-0.4-0.8-0.6-1.2-0.3c-0.4,0.2-0.6,0.8-0.3,1.2l2.1,3.8c0,0,0,0-0.1,0c-0.5,0.1-0.8,0.5-0.8,1
	l0,0L0.5,26c-0.4,0.3-0.4,0.9-0.1,1.2c0,0-0.1,0-0.1,0c-0.4,0.3-0.4,0.9-0.1,1.2l3.3,4L2,38c-0.1,0.4,0.1,0.9,0.5,1l-0.6,1.5
	c-0.2,0.5,0.1,1,0.5,1.1c0.5,0.2,1-0.1,1.1-0.5l0.5-1.3c0,0.3,0.1,0.5,0.3,0.7c0,0.3,0.2,0.5,0.4,0.7l0.9,0.5L5.4,44
	c0,0.4,0.2,0.7,0.5,0.9l-0.4,1.6c-0.1,0.5,0.2,1,0.7,1.1c0.5,0.1,1-0.2,1.1-0.7l0.9-3.7l0.3,0.2C8.2,43.6,8,43.9,8,44.3
	c0.1,0.5,0.5,0.8,1,0.8l1.8-0.2l3,1.8c0,0.1,0.1,0.1,0.1,0.2l-5.7,1.1c-0.5,0.1-0.8,0.6-0.7,1c0.1,0.5,0.6,0.8,1,0.7l2.8-0.6
	c0,0.5,0.4,0.8,0.9,0.8l6.7,0.1l0.2,0.6l-1.4,0.4c-0.5,0.1-0.8,0.6-0.6,1.1s0.6,0.8,1.1,0.6l1.9-0.5c0.2,0.1,0.5,0.1,0.7,0
	c0.2-0.1,0.3-0.2,0.4-0.3l4.2-1.1l3,2.7c-0.3,0.3-0.3,0.9,0,1.2c0.3,0.4,0.9,0.4,1.3,0l0.1-0.1l0.5,0.4L29.8,56
	c-0.2,0.4-0.1,1,0.3,1.2c0.4,0.2,1,0.1,1.2-0.3l1-1.6l0.4,0.3c0.4,0.3,0.9,0.3,1.3,0c0.3-0.3,0.3-0.9,0-1.2c0.3,0.1,0.7-0.1,0.9-0.4
	c0.3-0.4,0.1-1-0.3-1.2L34,52.4l2-3.5l0.2-0.2l1.9,0.3c0,0,0.1,0,0.1,0l0.7,0.2c0.5,0.2,1-0.1,1.1-0.6c0.2-0.5-0.1-1-0.6-1.1
	l-1.3-0.4c0.2-0.1,0.4-0.3,0.5-0.5l0.1-0.2l2.4-2.1l-0.6,2.5c-0.1,0.3,0,0.7,0.3,0.9l-0.5,1.4c-0.1,0.4,0,0.7,0.3,1l-0.5,2
	c-0.1,0.5,0.2,1,0.7,1.1s1-0.2,1.1-0.7l1.5-6.5l0.9-2.5l0.3,0c0.1,0.4,0.5,0.7,0.9,0.6c0,0,0.1,0,0.1,0c0.2,0.2,0.4,0.3,0.7,0.3
	c0.5,0,0.9-0.4,0.9-0.9l0-1.4c0.1,0.2,0.4,0.4,0.7,0.4c0.5,0,0.9-0.3,1-0.8l0.3-3l0.2-0.1c0.5-0.1,0.7-0.6,0.6-1.1
	c-0.1-0.3-0.3-0.5-0.6-0.6l0-0.1l3.9-3.5c0.4-0.3,0.4-0.9,0.1-1.3C53,32,52.7,31.9,52.4,32c0,0,0-0.1-0.1-0.1l-0.4-0.5l0.3-0.2
	c0.4-0.3,0.5-0.8,0.3-1.2c-0.2-0.4-0.7-0.5-1.2-0.3c0.3-0.3,0.3-0.9,0-1.2c-0.3-0.3-0.9-0.4-1.2-0.1l0.2-2l1.9,1.8
	c0.4,0.3,0.9,0.3,1.3,0c0.3-0.4,0.3-0.9,0-1.3l-1.5-1.4l2.8,1.7c0.4,0.3,1,0.1,1.2-0.3S56.1,25.9,55.6,25.7z M7.6,24L8,23.7l0,0.4
	l-0.2,0.6l-0.2-0.4L7.6,24z M12.7,33.5l-1.6-2.9l0.3-1.3c0-0.2,0-0.3,0-0.4l2.1-5.9c0.1-0.3,0-0.7-0.2-0.9l0-0.1
	c0.2-0.4,0-1-0.4-1.2c-0.1-0.1-0.3-0.1-0.4-0.1L17,18c0,0,0,0,0,0c0.4,0.3,0.9,0.3,1.3-0.1L20,16l3.4-0.4c0.5-0.1,0.8-0.5,0.8-1
	c-0.1-0.5-0.5-0.8-1-0.8L21.8,14l1-1.1c0.2,0.1,0.4,0.2,0.7,0.2l7.7-1.3l0.7,0.1l7,5.2c0.1,0.2,0.2,0.4,0.4,0.5l0.4,0.2
	c-0.2,0-0.3,0.1-0.5,0.2c-0.4,0.3-0.4,0.9-0.1,1.2l4.5,5.2l0,0c-0.2-0.1-0.4-0.2-0.6-0.1c-0.5,0.1-0.8,0.5-0.8,1l0.7,5.4l-0.4,0.9
	l-2.7,2.9c-0.1-0.1-0.2-0.1-0.3-0.2c-0.5-0.2-1,0-1.2,0.5l-0.9,2.2l-0.9,1c-0.2,0.2-0.2,0.5-0.2,0.7l-0.6,0.4
	c-0.4,0.3-0.5,0.8-0.3,1.2c0,0.1,0.1,0.1,0.1,0.1L34.6,41l-6.9-0.5c-0.4,0-0.8,0.2-0.9,0.6c0,0,0,0,0,0l-6.4,0.8
	c-0.3-0.1-0.5,0-0.8,0.1L18.7,42l-0.5-0.4c-0.2-0.2-0.6-0.3-0.9-0.2l-3-7c-0.2-0.4-0.7-0.7-1.2-0.5c-0.1,0.1-0.2,0.1-0.3,0.2
	C12.9,33.9,12.9,33.7,12.7,33.5z M9.9,24.9l0-0.2l0.4-1.5l0,0l1.3-1.7L9.9,24.9z M15.7,16.5C15.8,16.5,15.8,16.5,15.7,16.5l0.3-0.1
	l-0.7,0.5L15.7,16.5z M17.6,14.5l2.1-0.8l-0.5,0.6L17.6,14.5z M21.8,11.4c-0.2-0.1-0.5-0.2-0.7-0.1l-2.2,0.8l1.8-2.4
	c0.1,0.1,0.2,0.1,0.4,0.2l1.8,0.3L21.8,11.4z M24.9,10.7l1.2,0.2l-1.6,0.3L24.9,10.7z M27.7,42.2l0.5,0l-0.7,0.2
	C27.6,42.4,27.7,42.3,27.7,42.2z M26.6,47.3l-0.2,0.1l-0.1-0.1L26.6,47.3z M27.1,45.5c0-0.1,0-0.2,0-0.3l1.5,0.5L27.1,45.5z
	 M30.7,43c0,0,0,0.1,0.1,0.1l-0.4,0c0.1-0.2,0.1-0.4,0.1-0.7l0.3,0C30.7,42.6,30.7,42.8,30.7,43z M26,43l-0.2-0.1l0.7-0.1L26,43z
	 M31.9,45l-0.6-0.2l0.5,0c0.5,0,0.9-0.4,0.8-0.9c0-0.2-0.1-0.3-0.2-0.4l2.3-0.6l0.5,0l-0.4,1L31.9,45z M41.8,38.8l1-1l-0.2,0.9
	L41.7,39L41.8,38.8z M40.9,41l1.1-0.3l0,0l-1.2,0.5L40.9,41z M36.3,45.1L36.3,45.1L36.3,45.1L36.3,45.1z M43.9,22.2l-1.8-2.1l1.9,2
	L43.9,22.2z M10.8,17L10.8,17L10.8,17L10.8,17L10.8,17z M10.6,33.5l0-0.1l0.2,0.4L10.6,33.5z M12.4,34.7c0.1-0.1,0.2-0.1,0.2-0.2
	c-0.1,0.2-0.1,0.4,0,0.6l0.9,2l-1.9-2.4C11.9,34.8,12.1,34.8,12.4,34.7z M21.6,47.1l1.3,1.2l-1.2,0l-1-1L21.6,47.1z M31.2,49.7
	c0.1-0.1,0.1-0.3,0.1-0.4c0,0,0,0,0-0.1l1.5-0.4l-0.4,1L31.2,49.7z M30.9,7.8l-1-0.2l-0.1-0.1l0.2,0l0.6,0.1L30.9,7.8z M7,26.9
	l-0.5,1.4l0,0l0.4-1.5L7,26.9z M10.8,36.5l4.7,5.9l0,0l-3.4-3.2L10.8,36.5z M46.9,31.5l0-0.3l0.7-2.1l0,0l0.2,0.2l-0.1,1.5
	L46.9,31.5z M41.1,15.2L41.1,15.2L41.1,15.2L41.1,15.2z M16.4,45.7l0.5,0.5l-0.2,0.1l-0.8-0.5L16.4,45.7z M47.6,36.1L47,36.6l0-0.4
	l0.5-1.2l0,0.2c0,0.2,0.1,0.4,0.1,0.5L47.6,36.1z M47.3,14.3l-1.1,4.4l0.6-4.5L47.3,14.3z M44.5,18.4l-0.8-0.7
	c0.2,0,0.4-0.1,0.6-0.2c0.4-0.3,0.4-0.9,0.1-1.2l-1.5-1.8c0.1-0.3-0.1-0.7-0.3-0.9l-1.2-0.9l-0.1-0.1l3.9,1L44.5,18.4z M36.3,6.1
	c0.1,0,0.3-0.1,0.4-0.2l0.2,0.7l-1-0.1l-0.2-0.2L36.3,6.1z M31.3,5.4l-0.6-0.5l1.1-0.4l0.6,0.7L31.3,5.4z M18.5,6.3
	c0.1,0.3,0.3,0.5,0.6,0.6L19.4,7l-1.3,0.7l-0.2,0L18.5,6.3z M4.7,19.3l2.7-1l0.1,1.6l-0.1,0.1c-0.4,0-0.7,0.3-0.8,0.6l0,0.1
	l-0.9,0.8L4.7,19.3C4.7,19.3,4.7,19.3,4.7,19.3z M2.6,28.7L4,27.4l0.3,2.1l-0.3,1L2.6,28.7z M9,39.3l2.6,3.2
	c0.1,0.1,0.1,0.1,0.2,0.2l0.1,0.1L11.2,43l-2.7-1.6L9,39.3z M47.1,40.5l0-1.2l0.2,0L47.1,40.5z M51,33l-1.5,1.3l0.2-1.6l0.7-0.5
	L51,33z"/>
<g>
</g>
<g>
</g>
<g>
</g>
<g>
</g>
<g>
</g>
<g>
</g>
</svg>
