<?xml version="1.0" encoding="UTF-8" standalone="no"?>
<svg width="200px" height="200px" viewBox="0 0 200 200" version="1.1" xmlns="http://www.w3.org/2000/svg" xmlns:xlink="http://www.w3.org/1999/xlink" xmlns:sketch="http://www.bohemiancoding.com/sketch/ns">
    <!-- Generator: Sketch 3.3.2 (12043) - http://www.bohemiancoding.com/sketch -->
    <title>Group</title>
    <desc>Created with Sketch.</desc>
    <defs></defs>
    <g id="Page-1" stroke="none" stroke-width="1" fill="none" fill-rule="evenodd" sketch:type="MSPage">
        <g id="Group" sketch:type="MSLayerGroup" transform="translate(100.000000, 100.000000) scale(1, -1) translate(-100.000000, -100.000000) " fill="#000000">
            <path d="M95.58,191.392911 C93.4,189.655517 91.49,188.157763 91.33,188.057913 C91.16,187.948078 91.35,188.207688 91.81,188.716925 C92.84,189.875187 93.1,190.394408 93.1,191.303045 C93.1,193.070394 91.46,194.528208 89.64,194.378432 C88.44,194.288567 88.24,194.128807 84.9,190.733899 C83.24,189.04643 81.83,187.638542 81.75,187.598602 C81.68,187.548677 81.28,187.698452 80.8,187.948078 C79.98,188.367449 79.96,188.367449 78.86,188.377434 L77.75,188.377434 C77.75,188.377434 73.99,190.454319 73.48,190.743884 C72.97,191.023465 72.42,191.333 72.26,191.412881 C72.1,191.492761 71.87,191.722416 71.75,191.912132 C71.23,192.740889 70.55,193.2002 69.58,193.409885 C68.65,193.599601 67.47,193.270095 66.86,192.661008 C66.46,192.411383 58.1,197.244134 57.8,197.373939 C56.7,197.823265 55.37,197.59361 54.47,196.794808 C53.09,195.58662 53.09,193.429855 54.47,192.211682 C54.72,191.992012 55.04,191.752371 55.19,191.682476 C55.47,191.532701 57.33,190.444333 60.05,188.84673 C63.18,187.009486 63.5,186.809785 63.5,186.769845 C63.5,186.73989 56.69,173.689466 56.56,173.559661 C56.46,173.449825 43.85,173.759361 43.85,173.759361 C42.54,173.26011 41.88,172.670994 41.53,171.962057 C41.29,171.482776 41.25,171.27309 41.26,170.594109 C41.26,169.615577 41.54,168.996505 42.29,168.327509 C43.08,167.608587 52.93,167.249126 53.03,167.249126 C52.27,166.54019 35.12,157.114329 34.94,156.954568 C34.54,156.585122 34.5,156.684973 34.49,158.092861 C34.47,161.028457 34.35,162.785821 34.16,163.175237 C33.49,164.55317 31.85,165.312032 30.45,164.912631 C29.52,164.63305 28.89,164.153769 28.43,163.344983 C28.03,162.656016 27.99,162.12681 28.09,159.181228 C28.15,157.663505 28.22,154.158762 28.26,151.412881 L28.33,146.400399 C27.57,146.020969 18.24,144.702946 17.53,144.35347 C15.98,143.614578 15.43,141.577634 16.36,140.03994 C16.62,139.590614 16.68,139.430854 16.59,139.331003 C16.19,139.191213 14.17,138.402396 14.06,138.282576 C13.6,138.482277 12.7,139.291063 12.24,139.500749 C11.58,139.810285 10.49,139.870195 9.81,139.640539 C8.68,139.271093 7.83,138.232651 7.73,137.094358 C7.63,136.085871 7.75,135.72641 8.66,134.138792 C9.13,133.32002 15.48,122.2666 15.45,122.216675 C14.89,122.116825 13.85,121.537693 13.48,121.158263 C13,120.649026 12.7,119.94009 12.66,119.181228 C12.64,118.841737 12.62,118.542187 12.61,118.512232 C12.6,118.482277 12.23,118.142786 11.79,117.763355 C10.48,116.655017 1.6,109.056415 1.43,108.84673 C0.56,107.878183 0.46,106.330504 1.2,105.172242 C1.33,104.972541 1.31,104.922616 0.88,104.463305 C0.18,103.724413 0,103.265102 0,102.28657 C0,101.627559 0.04,101.387918 0.22,101.048427 C0.42,100.678982 1.86,98.9216176 7.54,92.1617574 C8.53,90.9835247 9.9,89.345981 10.6,88.5172242 C11.29,87.6984523 11.93,86.9296056 12.02,86.8297554 C12.24,86.5901148 12.24,86.4403395 12.04,85.7014478 C11.95,85.3819271 8.45,73.0204693 7.89,71.0434348 C7,67.9281078 6.87,67.3489765 6.87,66.6999501 C6.87,66.1308038 6.92,65.8412381 7.09,65.4817773 C7.3,65.0524214 8.11,64.1937094 8.54,63.9540689 C8.71,63.8542187 8.7,63.7943085 8.37,62.9555667 C6.43,57.9930105 6.4,57.8931603 6.58,57.0144783 C6.78,56.0559161 7.18,55.4468298 7.94,54.9775337 C8.99,54.3085372 10.03,54.2586121 11.17,54.8177733 C11.95,55.2071892 12.44,55.7863205 12.82,56.7648527 C12.96,57.1542686 14.36,60.7488767 14.45,60.449326 C14.64,59.8801797 14.97,59.2810784 15.26,59.0014978 C15.45,58.8217673 16.03,57.2041937 16.39,56.8347479 C16.6,56.6150774 17.47,56.0359461 18.31,55.536695 C20.48,54.2685971 20.26,54.5282077 20.12,53.3599601 C20.05,52.8207688 19.3,46.3604593 19.3,46.0109835 C19.3,45.1422866 19.69,44.3434848 20.43,43.6844733 L20.98,43.1852222 L20.51,41.2880679 C19.47,37.1243135 19.45,36.9545681 19.8,36.015976 C20.35,34.5381927 22.06,33.6595107 23.55,34.0988517 C24.25,34.2985522 24.75,34.6080879 25.18,35.0873689 C25.72,35.7064403 28.97,49.1163255 29.01,49.1662506 C29.08,49.2461308 30,48.7668497 30,48.6570145 C29.39,48.0778832 29.09,47.6684973 28.94,47.3489765 C28.57,46.5701448 28.55,45.4218672 28.89,44.7129306 C29.2,44.0738892 29.83,43.4548178 30.49,43.1552671 C30.99,42.9256116 31.1,42.9156266 32.19,42.9655517 C32.83,42.9955067 38.69,43.6645032 38.69,43.6645032 C39.43,43.1952072 46.92,38.8217673 48.31,38.0129805 C49.32,37.4138792 49.8,36.9945082 49.64,36.8547179 C49.59,36.8147778 36.47,34.2486271 35.15,33.9890165 C28.65,32.7508737 29.01,32.8407389 28.23,32.1218173 C27.53,31.4827758 27.27,30.8736895 27.26,29.9051423 C27.26,29.2860709 27.31,29.0064903 27.48,28.6570145 C27.84,27.9181228 28.26,27.4887668 28.98,27.1392911 C29.99,26.6400399 30.43,26.669995 34.75,27.558662 C35.28,27.6684973 38.14,28.2276585 39.65,28.5172242 C40.15,28.6070894 40.61,28.6869695 40.68,28.6969546 C40.76,28.7069396 40.91,28.447329 41.05,28.0878682 C41.32,27.3290065 41.67,26.8597104 42.23,26.4802796 C42.83,26.0808787 43.11,25.9810285 43.77,25.9211183 C44.09,25.8911633 67.74,25.6315527 67.86,25.6115826 C68.01,25.5816276 68.8,23.8242636 68.78,23.7543684 C68.74,23.6345482 68.51,23.564653 65.6,22.8157763 C63.68,22.3165252 63.01,22.0469296 62.53,21.5476785 C61.07,20.01997 61.45,17.6435347 63.3,16.6350474 C64.15,16.1757364 65.07,16.1757364 66.85,16.6650025 C67.79,16.9146281 69.7,17.4238642 71.07,17.783325 C72.18,18.0629056 72.21,18.0629056 72.81,17.9131303 C73.93,17.6235647 74.96,17.9031453 75.88,18.7219171 C76.38,19.1712431 76.55,19.2311533 78.85,19.8202696 C80.53,20.2496256 82.27,20.7089366 83.26,20.9685472 C83.69,21.0883674 84.57,21.318023 85.2,21.4777833 C85.83,21.6475287 86.87,21.9171243 87.5,22.0768847 C88.13,22.2466301 89.23,22.5361957 89.93,22.7159261 L91.21,23.0454319 C91.21,23.0454319 101.8,13.5396905 101.8,13.5097354 C101.15,12.6110834 100.96,11.8622067 101.04,11.0733899 C101.26,8.67698452 104.01,7.48876685 106.06,8.89665502 C106.3,9.05641538 106.55,9.18622067 106.62,9.18622067 C106.69,9.17623565 107.08,8.86669995 107.48,8.4872691 L108.2,7.80828757 L107.22,6.17074388 C106.68,5.27209186 106.19,4.41337993 106.12,4.26360459 C106.05,4.11382926 106,3.60459311 106,3.13529705 C106,1.93709436 106.33,1.34797803 107.57,0.389415876 C107.64,0.339490764 108.169995,0 109.130005,0 C110.090015,0 110.52,0.299550674 110.52,0.299550674 C111.26,0.838741887 111.56,1.11832252 111.66,1.27808288 C111.84,1.54767848 113.55,4.36345482 114.59,6.08087868 C114.9,6.59011483 115.21,7.03944084 115.27,7.05941088 C115.34,7.08936595 115.72,6.80978532 116.12,6.45032451 C117.12,5.53170245 117.7,5.27209186 118.74,5.27209186 C119.72,5.26210684 120.26,5.47179231 120.95,6.10084873 C121.48,6.59011483 121.72,7.00948577 121.9,7.7783325 C122.04,8.38741887 121.92,9.17623565 121.59,9.76535197 C121.4,10.214678 121.7,10.3045432 122.08,10.3744383 C123.69,10.664004 124.72,11.8622067 124.72,13.4498253 C124.72,14.7978033 124.16,15.556665 122.37,16.6050924 C121.84,16.9246131 121.4,17.2241638 121.4,17.2840739 C121.69,17.8032951 121.87,18.0828757 121.98,18.2725911 C122.09,18.4623065 123.16,20.2396405 124.35,22.216675 C125.55,24.1937094 126.98,26.5601598 127.52,27.4687968 C128.07,28.3874189 128.69,29.2960559 128.9,29.5057414 L129.81,29.765352 C130.11,29.7054418 130.82,29.5956066 131.4,29.5057414 C131.98,29.4258612 133.17,29.2361458 134.05,29.0963555 C134.93,28.9565652 135.92,28.8067898 136.25,28.7668497 C136.58,28.7169246 137.44,28.4972541 138.15,28.2576136 C139.28,27.8981528 139.53,27.8482277 140.03,27.8981528 C141.18,28.007988 142.27,28.7968048 142.7,29.8152771 C142.97,30.4343485 142.97,31.6425362 142.71,32.2116825 C142.48,32.7109336 141.9,33.3699451 141.44,33.6595107 C141.16,33.8292561 138.32,34.8377434 136.93,35.2571143 C137.48,36.1258113 137.89,36.6949576 138.15,37.3639541 C138.32,37.8332501 138.8,38.3125312 140.9,40.0898652 C141.16,40.3095357 142.47,41.4478283 143.81,42.6260609 C145.15,43.8042936 146.33,44.8327509 146.43,44.9126311 C146.77,45.2121817 146.77,45.2221667 145.85,41.6874688 C144.86,37.9031453 144.5,36.3554668 144.5,35.9360959 C144.5,35.2970544 144.82,34.4782826 145.27,33.9590614 C145.6,33.5696455 145.62,33.5097354 145.52,33.2201697 C145.4,32.8307539 145,31.7623565 144.29,29.9051423 C143.78,28.5871193 143.75,28.457314 143.75,27.6085871 C143.75,26.6300549 143.91,26.200699 144.5,25.5317024 C144.8,25.1922117 144.8,25.1922117 144.66,24.6530205 C144.59,24.3534698 144.41,23.5946081 144.26,22.9655517 C144.11,22.3364953 143.95,21.6575137 143.9,21.4677983 C143.03,18.232651 142.91,17.0444333 143.37,16.1058412 C144.3,14.208687 147,13.789316 148.53,15.3170245 C149.01,15.7863205 149.22,16.3155267 149.64,18.0728907 C150.25,20.6090864 157.49,46.8297554 157.64,47.2291563 C157.72,47.4188717 157.84,47.7284074 157.9,47.9081378 C158.01,48.1977034 158.06,48.2276585 158.44,48.2276585 C158.94,48.2276585 159,48.1877184 159.33,47.6684973 C159.99,46.6100849 160.85,46.1108337 162.06,46.0708937 C162.8,46.0509236 162.92,46.0109835 163.31,45.7413879 C164.74,44.7029456 166.81,45.0424363 167.83,46.4902646 C168.37,47.2591113 168.41,47.5087369 168.33,50.2546181 C168.3,51.6125811 168.3,52.7209186 168.34,52.7209186 C169.31,51.9720419 169.8,51.7923115 170.67,51.7423864 C171.3,51.7124314 171.61,51.7423864 172.01,51.8821767 C172.7,52.1318023 173.43,52.8007988 173.73,53.4498253 C174,54.0289566 174.01,54.1387918 174.55,59.8102846 C174.74,61.8172741 174.93,63.7443834 174.98,64.1038442 L175.05,64.7528707 L175.66,64.9625562 C177.28,65.5117324 178,66.4603095 178,68.007988 C178,68.6570145 177.95,68.90664 177.74,69.345981 C177.45,69.9750374 176.77,70.6140789 176.14,70.8537194 C175.7,71.1432851 175.87,71.3429855 176.08,71.5227159 C176.52,71.9321018 189.53,83.2950574 189.76,83.544683 C191.46,85.4318522 190.24,88.427359 187.68,88.6370444 C186.99,88.6969546 186.93,88.7169246 186.56,89.1063405 C185.8,89.9151273 185.3,90.5341987 185.3,90.673989 C187.33,91.9720419 187.93,93.5996006 187.25,95.2271593 C187.02,95.7663505 186.34,96.425362 185.7,96.7249126 C185.23,96.9545681 185.02,96.9845232 184.23,96.9845232 L183.32,96.9745382 C184.27,99.111333 183.34,101.058412 181.54,101.637544 C180.93,101.837244 179.75,101.747379 179.22,101.467798 C178.64,101.337993 178.68,101.927109 178.89,104.043934 C178.95,104.623065 179.05,105.611583 179.1,106.240639 C179.16,106.869695 179.23,107.488767 179.26,107.618572 C179.79,107.568647 180.44,106.949576 181.15,106.300549 C181.87,105.641538 183.1,104.49326 183.9,103.744383 C186.68,101.118323 186.71,101.098352 188.15,101.098352 C189,101.098352 189.22,101.138293 189.58,101.328008 C190.98,102.0669 191.63,103.694458 191.14,105.202197 C191,105.601598 190.77,105.891163 189.81,106.83974 C189.17,107.468797 188.08,108.507239 187.4,109.136296 C186.71,109.765352 186.09,110.354468 186.02,110.454319 C186.17,110.524214 186.7,110.224663 187.25,109.885172 C187.8,109.545681 188.95,108.84673 189.8,108.337494 C190.65,107.818273 192.27,106.849725 193.39,106.170744 C194.52,105.491762 195.62,104.892661 195.84,104.832751 C196.5,104.65302 197.67,104.772841 198.26,105.072391 C198.84,105.361957 199.44,105.981028 199.67,106.52022 C200.02,107.279081 200.03,108.287569 199.92,108.517224 C199.18,110.044933 199.17,110.044933 197.86,110.823764 C197.42,111.083375 178.88,122.2666 178.43,122.536196 L177.6,123.035447 C177.6,123.754368 178.31,141.018472 177.9,141.737394 C177.3,142.775836 176.39,143.285072 175.11,143.285072 C174.64,143.285072 174.18,143.225162 173.97,143.135297 C173.53,143.105342 173.6,143.454818 173.7,143.844234 C173.8,144.223665 177.01,157.054418 176.67,157.79331 C176.35,158.492262 175.93,158.961558 175.28,159.311033 C174.8,159.580629 174.66,159.610584 173.79,159.610584 C172.94,159.610584 172.78,159.580629 172.27,159.321018 C171.37,158.871692 170.94,158.272591 170.53,156.914628 C170.38,156.435347 170.31,156.315527 170.15,156.325512 C169.85,156.345482 167.97,156.854718 167.89,156.934598 C167.82,157.014478 167.91,157.743385 168.4,161.208188 C168.65,162.955567 168.65,163.414878 168.4,164.083874 C168.12,164.842736 167.61,165.381927 166.84,165.761358 C165.57,166.390414 164.09,166.140789 163.13,165.142287 C162.55,164.5332 162.34,164.003994 162.16,162.606091 C161.83,160.169745 161.78,159.8003 161.69,159.261108 C161.64,158.961558 161.56,158.681977 161.52,158.642037 C161.48,158.602097 161.15,158.652022 160.8,158.761857 C160.44,158.871692 160.08,158.961558 160,158.961558 C159.61,158.961558 159.62,159.181228 160,159.690464 C160.54,160.389416 160.78,161.288068 160.62,162.016975 C160.4,163.065402 159.82,163.894159 159,164.303545 C158.56,164.523215 150.11,166.010984 150.07,166.050924 C150.61,167.978033 150.11,169.455816 148.9,170.234648 C147.94,170.853719 140.1,169.705442 140.06,169.875187 C139.91,170.414378 132.07,197.663505 131.94,197.91313 C131.33,199.131303 129.68,199.84024 128.35,199.450824 C127.33,199.161258 126.57,198.522217 126.19,197.63355 C125.98,197.134299 125.93,195.976036 126.1,195.4668 C126.19,195.197204 129.1,184.992511 129.1,184.932601 C128.74,184.822766 124.12,183.894159 123.2,183.724413 L122.55,183.614578 C121.93,184.29356 116.29,190.624064 115.85,191.063405 C114.92,192.001997 114.45,192.211682 113.35,192.211682 C112.17,192.211682 111.08,191.552671 110.55,190.504244 C110.26,189.945082 110.23,189.915127 109.25,189.515726 C108.81,189.345981 108.3,189.126311 108.12,189.04643 C107.83,188.90664 107.73,188.90664 107.37,189.02646 C106.21,189.415876 104.7,188.976535 103.89,188.017973 C103.66,187.738392 103.41,187.518722 103.33,187.518722 C103.17,187.518722 102.1,188.307539 102.1,188.427359 C102.1,188.497254 103.41,189.555667 108.17,193.330005 C110.48,195.177234 110.73,195.52671 110.74,196.954568 C110.75,197.65352 110.71,197.823265 110.45,198.282576 C110.11,198.921618 109.65,199.380929 109.13,199.640539 C108.92,199.740389 108.67,199.86021 108.58,199.910135 C108.48,199.96006 108.01,200 107.53,199.990015 C106.78,199.990015 106.59,199.950075 106.21,199.730404 C105.72,199.450824 105.49,199.271093 95.58,191.392911 Z M114.39,183.265102 C114.9,182.685971 115.28,182.176735 115.24,182.12681 C115.15,182.04693 112.13,181.427858 111.81,181.427858 C111.62,181.427858 109.86,182.685971 109.82,182.855716 C109.79,182.985522 112.91,184.303545 113.25,184.31353 C113.38,184.31353 113.77,183.964054 114.39,183.265102 L114.39,183.265102 Z M130.94,178.612082 C131.26,177.493759 131.34,177.134299 131.27,177.074388 C131.24,177.034448 130.5,177.104343 129.63,177.224164 C128.23,177.423864 128.02,177.483774 127.78,177.71343 C127.62,177.85322 127.5,178.022966 127.5,178.092861 C127.5,178.162756 127.83,178.282576 128.28,178.372441 C129.66,178.671992 130.01,178.771842 130.28,178.941588 C130.7,179.211183 130.77,179.171243 130.94,178.612082 L130.94,178.612082 Z M66.2,177.413879 C66.21,177.214179 66.8,176.595107 67.28,176.285572 C67.52,176.125811 67.92,175.946081 68.18,175.886171 C68.44,175.816276 68.65,175.70644 68.65,175.636545 C68.65,175.576635 68.47,175.416875 68.25,175.297054 C65.19,173.589616 64.47,173.24014 64.1,173.24014 C63.88,173.24014 63.7,173.290065 63.7,173.349975 C63.7,173.3999 63.83,173.679481 63.99,173.969046 C64.31,174.548178 65.58,176.964553 65.74,177.304044 C65.86,177.543684 66.2,177.623565 66.2,177.413879 L66.2,177.413879 Z M108.46,173.829256 C109.15,173.739391 109.32,173.669496 109.6,173.409885 C109.89,173.14029 109.91,173.090364 109.76,173.060409 C109.66,173.040439 109.39,173.070394 109.16,173.130305 C108.94,173.18023 108.32,173.330005 107.8,173.43984 C106.38,173.749376 106.42,173.739391 106.66,173.909136 C106.78,173.999001 106.99,174.028957 107.25,173.999001 C107.47,173.969046 108.01,173.899151 108.46,173.829256 L108.46,173.829256 Z M74.26,165.461807 C74.47,165.361957 74.81,165.252122 75,165.222167 C75.59,165.122317 78.72,164.563155 79.25,164.463305 C79.53,164.403395 80.1,164.303545 80.53,164.243635 C80.95,164.173739 81.3,164.063904 81.3,164.003994 C81.3,163.914129 79.48,161.917124 78.25,160.668997 L77.92,160.329506 L77.44,160.499251 C77.18,160.589116 76.66,160.659011 76.29,160.659011 C75.61,160.659011 75.21,160.539191 72.05,159.360959 C71.78,159.261108 70.97,158.971543 70.25,158.711932 C69.54,158.452322 68.67,158.142786 68.32,158.002996 C67.6,157.723415 67.57,157.723415 67.62,157.89316 C67.67,158.112831 73.64,165.651523 73.76,165.651523 C73.81,165.651523 74.04,165.571643 74.26,165.461807 L74.26,165.461807 Z M91.1,162.356465 C91.79,162.236645 92.4,162.12681 92.45,162.116825 C92.64,162.056915 92.03,161.867199 91.29,161.767349 C89.94,161.567649 88.4,161.318023 87.88,161.198203 C87.42,161.098352 87.54,161.367948 88.28,162.076885 L88.96,162.735896 L89.41,162.646031 C89.65,162.606091 90.41,162.466301 91.1,162.356465 L91.1,162.356465 Z M114.46,157.87319 C114.73,157.67349 115.96,156.774838 117.2,155.866201 C118.44,154.967549 119.86,153.939091 120.35,153.569646 C120.85,153.2002 122.44,152.041937 123.9,150.97354 C125.36,149.915127 126.78,148.88667 127.05,148.68697 C127.62,148.267599 128.31,147.758362 129.4,146.959561 C129.81,146.66001 130.76,145.971043 131.5,145.431852 C132.24,144.892661 133.26,144.143784 133.75,143.784324 C134.25,143.414878 135.55,142.466301 136.66,141.657514 C138.48,140.329506 138.68,140.149775 138.88,139.710434 C139.13,139.161258 139.91,138.392411 140.63,137.97304 C141.08,137.71343 141.24,137.493759 140.97,137.493759 C140.48,137.493759 139.37,136.545182 138.99,135.816276 C138.64,135.137294 138.65,133.859211 138.99,133.18023 C139.13,132.920619 140.9,130.833749 143.04,128.427359 C145.14,126.080879 148.47,122.336495 150.44,120.109835 C152.42,117.89316 154.28,115.816276 154.57,115.50674 C154.86,115.197204 155.1,114.907639 155.1,114.857713 C155.1,114.817773 154.66,114.797803 154.12,114.807788 C153.28,114.837743 153.07,114.817773 152.68,114.628058 C151.66,114.148777 150.96,113.24014 150.84,112.221667 C150.77,111.612581 150.82,111.203195 151.55,105.691463 C151.64,105.032451 151.75,104.153769 151.81,103.744383 C151.86,103.334998 151.95,102.656016 152,102.24663 C152.04,101.837244 152.2,100.619071 152.34,99.550674 C152.49,98.4822766 152.65,97.2641038 152.7,96.8547179 C152.75,96.445332 152.84,95.7663505 152.9,95.3569646 C153.19,93.2401398 153.24,92.4213679 153.07,92.0619071 C152.99,91.8721917 152.7,91.1732401 152.44,90.5142287 L151.96,89.316026 L150.65,87.9081378 C149.94,87.1392911 148,85.0823764 146.35,83.3349975 C144.7,81.5876186 143.16,79.9301048 142.92,79.6704943 C142.68,79.4008987 142.44,79.1812282 142.38,79.1812282 C142.32,79.1812282 141.98,79.3210185 141.61,79.5007489 C140.09,80.2296555 138.29,79.6904643 137.45,78.242636 C137.32,78.0129805 137.01,77.324014 136.76,76.6949576 C136.5,76.0758862 136.21,75.3769346 136.11,75.1472791 C136.01,74.9276086 135.76,74.3384923 135.55,73.8392411 C135.19,72.9605592 135.12,72.7908138 134.73,71.8921618 C134.62,71.6425362 134.42,71.1832252 134.3,70.8637044 C134.17,70.5441837 133.9,70.1148278 133.7,69.9051423 C131.05,67.109336 130.39,66.3704443 130.2,66.0009985 C130.07,65.7413879 129.95,65.2820769 129.91,64.8627059 L129.85,64.1537693 L128.7,63.4348477 C128.07,63.0354468 127.4,62.5461807 127.23,62.3464803 C126.42,61.4278582 126.27,59.9500749 126.89,58.8716925 C127.2,58.3125312 127.22,58.1128308 126.95,58.1128308 C126.87,58.1128308 126.07,57.9031453 125.18,57.6535197 L123.55,57.1842237 C123.55,57.1842237 99.43,59.0414378 98.8,59.0514229 C97.67,59.0614079 97.64,59.0514229 97.02,58.7219171 C96.37,58.3724413 95.92,57.9231153 95.65,57.3639541 C95.48,56.9945082 70.51,54.2785821 69.97,54.0189715 C69.72,53.8891663 69.09,53.7493759 68.4,53.6694958 C66.58,53.4398402 66.72,53.3999001 65.66,54.3584623 C65.14,54.8277584 64.48,55.3270095 64.19,55.4767848 C63.71,55.7164254 63.54,55.7463804 62.69,55.7363954 L61.73,55.7363954 L61.2,56.9445831 C60.7,58.0828757 51.49,78.9316026 51.02,79.98003 C50.44,81.2780829 49.39,81.9770344 48.03,81.9770344 C47.38,81.9770344 46.42,81.6874688 46.2,81.4278582 C45.93,81.1083375 45.8,81.2581128 45.8,81.8671992 C45.8,82.1867199 45.74,82.6060909 45.66,82.7958063 C45.58,82.9855217 39.94,92.7608587 39.85,92.880679 C39.61,93.2301548 39.57,92.9705442 40.5,96.8047928 C40.76,97.8632052 48.18,119.680479 48.29,120.009985 C48.54,120.768847 48.35,121.897154 47.85,122.606091 L47.59,122.985522 L47.81,123.474788 C48.24,124.483275 47.94,125.961058 47.13,126.769845 C46.73,127.169246 45.91,127.608587 45.56,127.608587 C45.09,127.608587 45.2,127.798303 45.92,128.257614 C47.16,129.02646 60.41,137.194209 60.5,137.194209 C60.55,137.194209 60.8,137.064403 61.06,136.894658 C62.37,136.065901 64.17,136.335497 65.26,137.523714 C65.53,137.81328 71.43,144.083874 71.64,144.123814 C71.76,144.153769 83.73,145.441837 83.95,145.491762 C84.17,145.551672 84.45,145.621568 84.58,145.651523 C84.94,145.741388 85.83,146.610085 86.1,147.139291 C86.31,147.558662 86.35,147.768347 86.35,148.527209 C86.35,149.186221 86.3,149.525711 86.17,149.785322 C85.86,150.414378 85.32,150.943585 84.68,151.263105 C84.14,151.542686 83.97,151.572641 83.21,151.572641 C82.74,151.572641 81.43,151.462806 80.3,151.333 C79.17,151.203195 78.22,151.123315 78.17,151.163255 C78.13,151.203195 78.27,151.422866 78.47,151.642536 C80.34,153.649526 81.45,154.767848 81.57,154.767848 C81.64,154.767848 81.82,154.697953 81.96,154.608088 C82.09,154.518223 82.48,154.378432 82.83,154.308537 C83.46,154.178732 108.94,158.302546 109.3,158.362456 C109.66,158.422366 110.15,158.502247 110.4,158.552172 C111.14,158.701947 111.75,158.671992 112.89,158.452322 C113.81,158.272591 114.05,158.182726 114.46,157.87319 Z M147.97,155.70644 C148.29,155.62656 149.14,155.396905 149.85,155.207189 C151.15,154.867698 152.35,154.548178 154.5,153.969046 C155.13,153.809286 156.24,153.509735 156.95,153.330005 C159.8,152.571143 160.21,152.461308 160.45,152.371443 C160.75,152.261608 160.76,152.131802 160.56,150.783824 C160.48,150.254618 160.36,149.445831 160.3,148.976535 C160.24,148.507239 160.15,147.858213 160.1,147.528707 C160.05,147.199201 159.96,146.570145 159.9,146.130804 C159.85,145.691463 159.67,144.363455 159.51,143.185222 C159.35,142.00699 159.14,140.459311 159.05,139.740389 C158.67,136.884673 158.55,136.145781 158.44,136.145781 C158.32,136.145781 156.1,138.182726 156.1,138.292561 C156.1,138.332501 156.27,138.402396 156.47,138.442336 C157.32,138.602097 158.1,139.191213 158.55,140.009985 C158.78,140.429356 158.85,140.688967 158.88,141.337993 C158.95,142.616076 158.74,142.945582 156.06,145.881178 C155.88,146.070894 155.07,146.989516 154.25,147.908138 L152.76,149.595607 L152.74,150.264603 C152.72,151.05342 152.39,151.852222 151.88,152.341488 C151.7,152.511233 150.71,153.250125 149.69,153.989016 C147.58,155.50674 147.3,155.716425 147.3,155.806291 C147.3,155.886171 147.31,155.886171 147.97,155.70644 L147.97,155.70644 Z M69.9,151.802297 C69.89,151.752371 69.54,151.342986 69.11,150.883674 L68.33,150.044933 L66.69,149.865202 C65.79,149.775337 64.77,149.665502 64.43,149.625562 C63.74,149.545681 63.55,149.695457 64.13,149.855217 C64.3,149.915127 64.97,150.144783 65.6,150.364453 C66.23,150.594109 67,150.873689 67.3,150.983525 C67.6,151.083375 68.26,151.323015 68.75,151.512731 C69.68,151.872192 69.9,151.922117 69.9,151.802297 L69.9,151.802297 Z M168,150.384423 C168.62,150.224663 168.65,150.204693 168.64,149.925112 C168.64,149.655517 168.39,148.667 167.13,143.934099 C166.44,141.308038 166.07,139.90015 165.67,138.322516 C165.28,136.804793 165.1,136.365452 165.1,136.934598 C165.1,137.064403 165.19,137.763355 165.3,138.502247 C165.4,139.241138 165.56,140.379431 165.65,141.038442 C165.74,141.697454 165.85,142.536196 165.9,142.915627 C165.96,143.285072 166.04,143.884174 166.1,144.263605 C166.15,144.63305 166.26,145.471792 166.35,146.130804 C166.43,146.789815 166.55,147.598602 166.59,147.928108 C166.64,148.257614 166.74,148.98652 166.81,149.555667 C166.96,150.723914 166.9,150.683974 168,150.384423 L168,150.384423 Z M26.83,134.148777 C26.93,133.050424 27.02,131.842237 27.03,131.452821 L27.05,130.763854 L26.7,130.703944 C25.64,130.514229 24.68,129.755367 24.24,128.76685 C24,128.217673 23.83,128.037943 22.53,126.929606 C21.73,126.250624 21.02,125.721418 20.96,125.741388 C20.83,125.791313 16.9,132.501248 16.9,132.670994 C16.9,132.720919 17.05,132.810784 17.23,132.870694 C17.4,132.930604 18.07,133.170245 18.7,133.3999 C19.33,133.629556 20.14,133.919121 20.5,134.048927 C20.86,134.178732 21.53,134.418372 22,134.598103 C22.78,134.887668 23.61,135.177234 24.65,135.54668 C24.87,135.62656 25.34,135.806291 25.7,135.936096 C26.06,136.075886 26.42,136.175736 26.5,136.165751 C26.62,136.145781 26.69,135.74638 26.83,134.148777 L26.83,134.148777 Z M39.49,121.158263 C38.77,119.730404 38.14,118.532202 38.1,118.472292 C38.06,118.422366 37.52,117.363954 36.89,116.125811 C36.27,114.887668 35.7,113.779331 35.62,113.649526 C35.29,113.130305 35.34,113.669496 35.76,115.127309 C36,115.976036 36.32,117.104343 36.46,117.623565 C36.61,118.142786 36.77,118.662007 36.82,118.771842 C36.95,119.071393 40.71,123.834249 40.77,123.784324 C40.79,123.754368 40.22,122.576136 39.49,121.158263 L39.49,121.158263 Z M28.41,117.004493 C28.41,116.984523 28.44,116.684973 28.47,116.325512 C28.51,115.776335 28.47,115.556665 28.25,114.977534 C27.79,113.779331 27.78,113.769346 27.32,114.558163 C27.01,115.097354 27,115.137294 27.11,115.58662 C27.2,115.946081 27.36,116.175736 27.74,116.535197 C28.18,116.954568 28.38,117.094358 28.41,117.004493 L28.41,117.004493 Z M14.56,103.285072 C15.4,96.4852721 15.36,97.4638043 14.9,95.8062906 C14.86,95.6465302 14.73,95.1772341 14.62,94.7778333 C14.51,94.3784324 14.4,94.0189715 14.37,93.9990015 C14.34,93.9690464 13.9,94.4483275 13.39,95.0574139 C12.87,95.6764853 11.76,96.9945082 10.93,97.9830255 C10.09,98.9815277 9.4,99.8202696 9.4,99.8502247 C9.4,99.8901648 10.06,100.519221 10.87,101.258113 C11.68,101.997004 12.77,102.985522 13.3,103.464803 C13.82,103.944084 14.29,104.323515 14.35,104.31353 C14.4,104.29356 14.5,103.834249 14.56,103.285072 L14.56,103.285072 Z M169.85,98.3524713 C170.02,98.1727409 170.03,97.9830255 170.02,96.6749875 C170.01,95.8662007 169.97,94.6979531 169.94,94.0888667 L169.87,92.9605592 L169.06,92.1717424 C168.01,91.1432851 167.4,90.6140789 167.26,90.6140789 C167.07,90.6140789 167.2,91.3629556 167.61,92.6610085 C168.83,96.4852721 169.52,98.5521717 169.59,98.5521717 C169.63,98.5521717 169.75,98.4623065 169.85,98.3524713 L169.85,98.3524713 Z M180.72,86.1308038 C181.27,85.5416875 181.7,84.9925112 181.68,84.9126311 C181.64,84.7129306 176.77,80.4792811 176.68,80.5691463 C176.61,80.6290564 176.91,84.1937094 177.08,85.312032 L177.15,85.8012981 L178.3,86.5302047 C178.93,86.9296056 179.51,87.2491263 179.59,87.2391413 C179.67,87.2291563 180.18,86.7299051 180.72,86.1308038 L180.72,86.1308038 Z M44.88,78.7418872 C44.89,78.2725911 44.97,77.9231153 45.2,77.4438342 C45.36,77.0743884 45.5,76.7648527 45.5,76.7348977 C45.5,76.7149276 45.63,76.4153769 45.79,76.0659011 C46.38,74.7778333 46.63,74.208687 47.06,73.2101847 C47.3,72.6410384 47.57,72.0419371 47.66,71.8821767 C48.01,71.1932102 47.68,71.4328507 46.79,72.5012481 C45.17,74.4383425 41.8,78.5721418 41.8,78.6220669 C41.8,78.6420369 42.11,78.671992 42.5,78.671992 C43.34,78.671992 43.84,78.8017973 44.3,79.121318 C44.49,79.2611083 44.7,79.3709436 44.75,79.3809286 C44.81,79.3809286 44.86,79.101348 44.88,78.7418872 L44.88,78.7418872 Z M169.24,76.6250624 C169.27,76.4053919 169.38,76.015976 169.49,75.7763355 C169.63,75.4468298 169.67,75.1972042 169.63,74.8077883 C169.58,74.2985522 169.55,74.2586121 168.76,73.5396905 C168.32,73.1303045 167.89,72.7908138 167.81,72.7908138 C167.53,72.7908138 167.74,74.0389416 168.24,75.2870694 C168.49,75.9161258 168.7,76.465302 168.7,76.4952571 C168.7,76.5351972 168.77,76.7348977 168.86,76.9445831 C169.04,77.3739391 169.13,77.2940589 169.24,76.6250624 L169.24,76.6250624 Z M40.33,70.3844234 C40.89,69.6854718 42.86,67.2890664 44.7,65.0524214 C46.54,62.8157763 48.19,60.8187718 48.35,60.6090864 C48.52,60.3994009 48.92,59.9101348 49.25,59.5107339 C49.58,59.111333 49.99,58.6220669 50.15,58.4123814 C50.32,58.202696 50.7,57.7333999 51.02,57.353969 C54.11,53.5896156 54.69,52.870694 54.65,52.8407389 C54.59,52.7808288 53.6,53.6495257 52.2,54.9675487 C51.06,56.0459311 48.45,58.4523215 46.36,60.3494758 C45.64,60.9985022 44.66,61.9071393 44.19,62.3564653 L43.34,63.1852222 L41.22,67.3789316 C40.05,69.6954568 39.1,71.6125811 39.1,71.6425362 C39.1,71.8322516 39.4,71.5227159 40.33,70.3844234 L40.33,70.3844234 Z M152.6,67.8681977 C152.6,67.6884673 151.88,65.0424363 151.81,64.9725412 C151.76,64.9226161 151.57,64.8527209 151.39,64.8027958 C151.2,64.7628557 150.71,64.6230654 150.3,64.5132302 C149.12,64.1737394 148.9,64.1537693 148.9,64.3434848 C148.9,64.5531702 149.24,64.9126311 151,66.5501747 C152.27,67.7284074 152.6,67.998003 152.6,67.8681977 L152.6,67.8681977 Z M33.97,60.6889666 C40.11,53.32002 41.89,51.2331503 42.31,50.9036445 C42.58,50.683974 42.62,50.6140789 42.51,50.5341987 C42.37,50.4443335 40.54,50.1747379 40.14,50.1947079 C40.02,50.1947079 39.08,50.6939591 38.04,51.2930604 C31.89,54.8676985 30.65,55.6065901 30.62,55.7463804 C30.6,55.8262606 30.75,56.5351972 30.94,57.324014 C32.06,61.9071393 32.23,62.6060909 32.3,62.6060909 C32.33,62.6060909 33.08,61.7373939 33.97,60.6889666 L33.97,60.6889666 Z M124.97,50.8137793 C125.4,50.7538692 125.76,50.6939591 125.77,50.683974 C125.79,50.664004 125.33,49.5057414 125.01,48.7768347 C124.54,47.7084373 124.4,47.4588118 124.19,47.3589616 C123.76,47.1592611 123.29,46.9595607 120.75,45.9311033 C119.38,45.3719421 118.09,44.8427359 117.9,44.7628557 C117.28,44.4932601 117.16,44.443335 116.5,44.1837244 C115.83,43.9141288 115.69,43.8642037 115.1,43.6045931 C114.91,43.5147279 114.52,43.3549675 114.23,43.2451323 L113.71,43.0454319 L112.91,43.2950574 C112.47,43.4348477 112.08,43.5846231 112.05,43.6445332 C112.01,43.6944583 112.24,43.7343984 112.58,43.7343984 C113.9,43.7343984 114.84,44.0539191 115.57,44.7628557 C116.19,45.3619571 116.43,46.0209685 116.38,47.0494259 C116.36,47.5786321 116.28,48.007988 116.17,48.2176735 C116.08,48.4073889 116,48.5771343 116,48.5971043 C116,48.6869695 116.64,48.8667 120.25,49.8152771 C121.65,50.1847229 123.69,50.7538692 123.85,50.8237644 C124.12,50.9335996 124.08,50.9435846 124.97,50.8137793 L124.97,50.8137793 Z M100.47,40.8087868 C100.5,40.7688467 100.64,40.7388917 100.76,40.7388917 C100.89,40.7388917 101.02,40.6989516 101.05,40.6390414 C101.13,40.5092361 101.11,40.5092361 99.94,40.6989516 C99.4,40.7788318 98.66,40.898652 98.3,40.9485771 C96.85,41.1682476 96.85,41.1682476 96.88,41.4877683 C96.89,41.6575137 96.92,41.8372441 96.94,41.8971543 C96.98,41.9970045 100.3,40.9685472 100.47,40.8087868 L100.47,40.8087868 Z M58.72,40.3694458 C59.2,39.98003 60,39.2111832 60,39.131303 C60,39.091363 59.86,39.0114828 59.69,38.9515726 C59.35,38.8317524 59.47,38.7818273 57.6,39.8701947 C57.41,39.98003 57.13,40.1397903 56.98,40.2096855 C56.46,40.4792811 56.67,40.5691463 57.97,40.6190714 C58.29,40.6390414 58.46,40.5791313 58.72,40.3694458 L58.72,40.3694458 Z M78.11,34.7378932 C78.74,34.1887169 79.71,33.330005 80.28,32.8307539 C80.84,32.3315027 81.3,31.8921618 81.3,31.8422366 C81.3,31.6525212 80.99,31.6325512 79.27,31.7024463 L77.45,31.7723415 L75.76,33.3000499 C74.03,34.8577134 73.79,35.117324 74.02,35.1872192 C74.26,35.2471293 76.65,35.7164254 76.81,35.7363954 C76.9,35.7363954 77.48,35.2970544 78.11,34.7378932 L78.11,34.7378932 Z M116.9,29.6155766 C116.9,29.5456815 116.78,29.2161757 116.64,28.896655 C116.16,27.7983025 116.12,27.7084373 115.85,27.0394408 C115.58,26.3704443 115.57,26.3604593 115.21,26.3604593 C114.69,26.3704443 111.72,26.8097853 111.63,26.8896655 C111.59,26.9296056 111.62,27.109336 111.68,27.2890664 C111.75,27.4787818 111.8,27.7783325 111.8,27.978033 C111.8,28.3674488 111.91,28.4972541 112.3,28.5871193 C112.54,28.6370444 113.91,28.9965052 115.75,29.4957564 C116.82,29.785322 116.9,29.795307 116.9,29.6155766 L116.9,29.6155766 Z" id="Shape" sketch:type="MSShapeGroup"></path>
        </g>
    </g>
</svg>