<?xml version="1.0" encoding="utf-8"?>
<!DOCTYPE svg PUBLIC "-//W3C//DTD SVG 1.1//EN" "http://www.w3.org/Graphics/SVG/1.1/DTD/svg11.dtd">
<svg version="1.1" xmlns="http://www.w3.org/2000/svg" width="1200" height="600">
	<g opacity="0.4"><rect fill="#ed6c22" x="1195.4146405337378" y="458.496854260331" width="3.048058295622468" height="125.83152932720259" rx="1.524029147811234" ry="1.524029147811234" transform="rotate(111.4734670612961 1196.938669681549 521.4126189239323)" data-cx="1196.938669681549" data-cy="521.4126189239323" data-angle="1.5707963267948966"></rect><rect fill="#ed6c22" x="1010.5680705676787" y="6.755966633092612" width="3.5107633704319596" height="187.50898039806634" rx="1.7553816852159798" ry="1.7553816852159798" transform="rotate(84.62075837887824 1012.3234522528946 100.51045683212578)" data-cx="1012.3234522528946" data-cy="100.51045683212578" data-angle="1.5707963267948966"></rect><rect fill="#ed6c22" x="154.99861529213376" y="62.24513584561646" width="3.652747345622629" height="251.27890846133232" rx="1.8263736728113145" ry="1.8263736728113145" transform="rotate(145.89914979413152 156.82498896494508 187.88459007628262)" data-cx="156.82498896494508" data-cy="187.88459007628262" data-angle="1.5707963267948966"></rect><rect fill="#14c0ff" x="1034.309174862923" y="-28.06821590824984" width="2.0707238516770303" height="222.6249060514383" rx="1.0353619258385152" ry="1.0353619258385152" transform="rotate(101.0084917768836 1035.3445367887616 83.24423711746931)" data-cx="1035.3445367887616" data-cy="83.24423711746931" data-angle="1.5707963267948966"></rect><rect fill="#ed6c22" x="510.97511735023" y="192.49659062293358" width="2.022134284954518" height="250.61564374854788" rx="1.011067142477259" ry="1.011067142477259" transform="rotate(143.13759533688426 511.98618449270725 317.8044124972075)" data-cx="511.98618449270725" data-cy="317.8044124972075" data-angle="1.5707963267948966"></rect><rect fill="#ed6c22" x="411.436918750871" y="-3.446537717944011" width="2.695986627601087" height="210.7622341173701" rx="1.3479933138005435" ry="1.3479933138005435" transform="rotate(145.28490954078734 412.7849120646715 101.93457934074104)" data-cx="412.7849120646715" data-cy="101.93457934074104" data-angle="1.5707963267948966"></rect><rect fill="#14c0ff" x="120.53703798819333" y="313.58476661657915" width="2.0733478870242834" height="138.1984317013994" rx="1.0366739435121417" ry="1.0366739435121417" transform="rotate(102.01982743106782 121.57371193170547 382.68398246727884)" data-cx="121.57371193170547" data-cy="382.68398246727884" data-angle="1.5707963267948966"></rect><rect fill="#ed6c22" x="659.5351726911031" y="59.30287111364305" width="2.246757377870381" height="160.99793184921145" rx="1.1233786889351904" ry="1.1233786889351904" transform="rotate(50.67419230006635 660.6585513800383 139.80183703824878)" data-cx="660.6585513800383" data-cy="139.80183703824878" data-angle="1.5707963267948966"></rect><rect fill="#ed6c22" x="34.59040437452495" y="248.58751062233932" width="2.094542261213064" height="141.76596649130806" rx="1.047271130606532" ry="1.047271130606532" transform="rotate(138.56664720922709 35.63767550513148 319.47049386799335)" data-cx="35.63767550513148" data-cy="319.47049386799335" data-angle="1.5707963267948966"></rect><rect fill="#14c0ff" x="989.0559214777313" y="491.3923354393337" width="3.5226956652477384" height="114.03894023178145" rx="1.7613478326238692" ry="1.7613478326238692" transform="rotate(143.84085553698242 990.8172693103552 548.4118055552244)" data-cx="990.8172693103552" data-cy="548.4118055552244" data-angle="1.5707963267948966"></rect><rect fill="#ed6c22" x="464.0146837376524" y="188.06763609568588" width="2.2513255863450468" height="241.1962343067862" rx="1.1256627931725234" ry="1.1256627931725234" transform="rotate(73.9611578732729 465.1403465308249 308.665753249079)" data-cx="465.1403465308249" data-cy="308.665753249079" data-angle="1.5707963267948966"></rect><rect fill="#ed6c22" x="893.8287451460492" y="123.09490152215585" width="3.4404798285104334" height="309.933376618661" rx="1.7202399142552167" ry="1.7202399142552167" transform="rotate(120.28054548427463 895.5489850603044 278.06158983148634)" data-cx="895.5489850603044" data-cy="278.06158983148634" data-angle="1.5707963267948966"></rect><rect fill="#14c0ff" x="486.0753566988278" y="422.65081911860034" width="2.4728145389817655" height="216.1217980356887" rx="1.2364072694908828" ry="1.2364072694908828" transform="rotate(121.07647064141929 487.3117639683187 530.7117181364447)" data-cx="487.3117639683187" data-cy="530.7117181364447" data-angle="1.5707963267948966"></rect><rect fill="#14c0ff" x="613.0482035444584" y="211.87276280648075" width="3.1447416660375893" height="236.10109399678186" rx="1.5723708330187947" ry="1.5723708330187947" transform="rotate(56.38625389896333 614.6205743774772 329.9233098048717)" data-cx="614.6205743774772" data-cy="329.9233098048717" data-angle="1.5707963267948966"></rect><rect fill="#ed6c22" x="536.037701393012" y="401.49586252332665" width="3.3063059179112315" height="191.7128778914921" rx="1.6531529589556158" ry="1.6531529589556158" transform="rotate(92.7661528531462 537.6908543519676 497.3523014690727)" data-cx="537.6908543519676" data-cy="497.3523014690727" data-angle="1.5707963267948966"></rect><rect fill="#ed6c22" x="896.3362636284437" y="157.43896637973376" width="2.118630100507289" height="188.6417539245449" rx="1.0593150502536446" ry="1.0593150502536446" transform="rotate(71.35248818434775 897.3955786786973 251.7598433420062)" data-cx="897.3955786786973" data-cy="251.7598433420062" data-angle="1.5707963267948966"></rect><rect fill="#ed6c22" x="800.6503769783303" y="247.02091109752655" width="2.660215714946389" height="245.75536512210965" rx="1.3301078574731946" ry="1.3301078574731946" transform="rotate(80.29796496033669 801.9804848358035 369.8985936585814)" data-cx="801.9804848358035" data-cy="369.8985936585814" data-angle="1.5707963267948966"></rect><rect fill="#ed6c22" x="625.5174061388243" y="464.0006364886649" width="3.8218198134563863" height="231.7359581394121" rx="1.9109099067281932" ry="1.9109099067281932" transform="rotate(49.658711263909936 627.4283160455525 579.868615558371)" data-cx="627.4283160455525" data-cy="579.868615558371" data-angle="1.5707963267948966"></rect><rect fill="#14c0ff" x="528.5077549305279" y="-11.411489059217274" width="3.7751695564948022" height="120.1976432967931" rx="1.8875847782474011" ry="1.8875847782474011" transform="rotate(139.58409279584885 530.3953397087753 48.68733258917928)" data-cx="530.3953397087753" data-cy="48.68733258917928" data-angle="1.5707963267948966"></rect><rect fill="#ed6c22" x="887.5513026122935" y="428.1945419420954" width="2.880945316515863" height="245.9452094663866" rx="1.4404726582579315" ry="1.4404726582579315" transform="rotate(118.22840957902372 888.9917752705514 551.1671466752887)" data-cx="888.9917752705514" data-cy="551.1671466752887" data-angle="1.5707963267948966"></rect><rect fill="#ed6c22" x="846.4535039630719" y="219.13117774343118" width="3.9109543403610587" height="139.71898111421615" rx="1.9554771701805294" ry="1.9554771701805294" transform="rotate(57.60095436125994 848.4089811332524 288.99066830053926)" data-cx="848.4089811332524" data-cy="288.99066830053926" data-angle="1.5707963267948966"></rect><rect fill="#ed6c22" x="160.30771304364316" y="323.5832356654573" width="3.3662225962616503" height="230.50227057328448" rx="1.6831112981308252" ry="1.6831112981308252" transform="rotate(137.4778620712459 161.990824341774 438.83437095209956)" data-cx="161.990824341774" data-cy="438.83437095209956" data-angle="1.5707963267948966"></rect><rect fill="#ed6c22" x="520.2375958105549" y="57.11703076190315" width="2.767371127381921" height="271.1930534024723" rx="1.3836855636909604" ry="1.3836855636909604" transform="rotate(34.269363759085536 521.6212813742459 192.7135574631393)" data-cx="521.6212813742459" data-cy="192.7135574631393" data-angle="1.5707963267948966"></rect><rect fill="#ed6c22" x="369.6809703253675" y="347.78249196638353" width="3.871812717523426" height="181.22397078340873" rx="1.935906358761713" ry="1.935906358761713" transform="rotate(118.57777909375727 371.61687668412924 438.3944773580879)" data-cx="371.61687668412924" data-cy="438.3944773580879" data-angle="1.5707963267948966"></rect><rect fill="#ed6c22" x="1022.6309071194846" y="322.79197866260074" width="3.81879119342193" height="182.1112151411362" rx="1.909395596710965" ry="1.909395596710965" transform="rotate(66.23179044574499 1024.5403027161956 413.84758623316884)" data-cx="1024.5403027161956" data-cy="413.84758623316884" data-angle="1.5707963267948966"></rect><rect fill="#14c0ff" x="928.0336018668022" y="162.7804945204407" width="3.1830185991711915" height="292.0070276632905" rx="1.5915092995855957" ry="1.5915092995855957" transform="rotate(35.92139261774719 929.6251111663878 308.78400835208595)" data-cx="929.6251111663878" data-cy="308.78400835208595" data-angle="1.5707963267948966"></rect><rect fill="#ed6c22" x="46.96838660677895" y="418.7668374837376" width="3.8796836407855153" height="166.24812118615955" rx="1.9398418203927577" ry="1.9398418203927577" transform="rotate(101.2072772718966 48.90822842717171 501.8908980768174)" data-cx="48.90822842717171" data-cy="501.8908980768174" data-angle="1.5707963267948966"></rect><rect fill="#ed6c22" x="83.35969783179462" y="271.19992778566666" width="2.1661106534302235" height="246.1619991264306" rx="1.0830553267151117" ry="1.0830553267151117" transform="rotate(136.61566693335772 84.44275315850973 394.28092734888196)" data-cx="84.44275315850973" data-cy="394.28092734888196" data-angle="1.5707963267948966"></rect><rect fill="#ed6c22" x="346.39218293945305" y="57.09141715010628" width="3.7081118137575686" height="244.9363573724404" rx="1.8540559068787843" ry="1.8540559068787843" transform="rotate(108.50172014907002 348.24623884633183 179.55959583632648)" data-cx="348.24623884633183" data-cy="179.55959583632648" data-angle="1.5707963267948966"></rect></g></svg>