<svg xmlns="http://www.w3.org/2000/svg" viewBox="0 0 56.1 57.3"><path fill="#FFF" d="M55.6 25.7l-5.9-3.6.2-4.9c0-.5-.4-.9-.8-.9-.2 0-.4.1-.5.2l1-3.8c.1-.5-.2-1-.6-1.1-.5-.1-1 .2-1.1.6l-.1.3-.8-.1.2-1.6c.1-.5-.3-.9-.8-1-.5-.1-.9.3-1 .8l-.2 1.4-.6-.2c.2-.1.3-.3.3-.6.1-.5-.2-.9-.7-1L42 9.7c.1-.2.2-.4.1-.6-.1-.5-.5-.8-1-.7l-1.8.3L37.1.8c-.2-.5-.7-.8-1.1-.6-.5.1-.7.6-.6 1.1l.9 3.1H36l-1.6.3-1.9-2.2c-.3-.4-.9-.4-1.2-.1-.2.2-.3.3-.3.5l-.8.3c-.3-.2-.7-.1-1 .2l-.2.2-.4-.3 2.2-1.7c.4-.3.4-.9.1-1.2S30-.1 29.6.2l-4.1 3.3-.2.1.5-.5c.3-.4.3-.9 0-1.3s-.9-.3-1.3 0l-1.7 1.7-.3-.2c-.2-.1-.5-.1-.7-.1l-1.7-1c-.1-.2-.2-.3-.4-.4-.4-.2-.8-.1-1.1.2L16.3.6c-.4-.3-1-.1-1.2.3s-.1 1 .3 1.2l2.4 1.4-2 3.9-3.4-.1c-.5 0-.9.4-.9.9s.4.9.9.9l2.6.3v.1l-5 2.8c-.1.1-.2.1-.3.2v-1.6c0-.5-.4-.9-.9-.9s-.9.4-.9.9l.1 4.5c-.1 0-.3.1-.4.2l-2.4.3c-.5.1-.8.5-.8 1 0 .2.1.4.3.6l-.6.2c-.1 0-.2.1-.3.2v-.1c-.2-.4-.8-.6-1.2-.3-.4.2-.6.8-.3 1.2l2.1 3.8h-.1c-.5.1-.8.5-.8 1L.5 26c-.4.3-.4.9-.1 1.2H.3c-.4.3-.4.9-.1 1.2l3.3 4L2 38c-.1.4.1.9.5 1l-.6 1.5c-.2.5.1 1 .5 1.1.5.2 1-.1 1.1-.5l.5-1.3c0 .3.1.5.3.7 0 .3.2.5.4.7l.9.5-.2 2.3c0 .4.2.7.5.9l-.4 1.6c-.1.5.2 1 .7 1.1.5.1 1-.2 1.1-.7l.9-3.7.3.2c-.3.2-.5.5-.5.9.1.5.5.8 1 .8l1.8-.2 3 1.8c0 .1.1.1.1.2L8.2 48c-.5.1-.8.6-.7 1 .1.5.6.8 1 .7l2.8-.6c0 .5.4.8.9.8l6.7.1.2.6-1.4.4c-.5.1-.8.6-.6 1.1s.6.8 1.1.6l1.9-.5c.2.1.5.1.7 0 .2-.1.3-.2.4-.3l4.2-1.1 3 2.7c-.3.3-.3.9 0 1.2.3.4.9.4 1.3 0l.1-.1.5.4-.5 1c-.2.4-.1 1 .3 1.2.4.2 1 .1 1.2-.3l1-1.6.4.3c.4.3.9.3 1.3 0 .3-.3.3-.9 0-1.2.3.1.7-.1.9-.4.3-.4.1-1-.3-1.2l-.6-.4 2-3.5.2-.2 1.9.3h.1l.7.2c.5.2 1-.1 1.1-.6.2-.5-.1-1-.6-1.1l-1.3-.4c.2-.1.4-.3.5-.5l.1-.2 2.4-2.1-.6 2.5c-.1.3 0 .7.3.9l-.5 1.4c-.1.4 0 .7.3 1l-.5 2c-.1.5.2 1 .7 1.1s1-.2 1.1-.7l1.5-6.5.9-2.5h.3c.1.4.5.7.9.6h.1c.2.2.4.3.7.3.5 0 .9-.4.9-.9v-1.4c.1.2.4.4.7.4.5 0 .9-.3 1-.8l.3-3 .2-.1c.5-.1.7-.6.6-1.1-.1-.3-.3-.5-.6-.6v-.1l3.9-3.5c.4-.3.4-.9.1-1.3-.4 0-.7-.1-1 0 0 0 0-.1-.1-.1l-.4-.5.3-.2c.4-.3.5-.8.3-1.2-.2-.4-.7-.5-1.2-.3.3-.3.3-.9 0-1.2-.3-.3-.9-.4-1.2-.1l.2-2 1.9 1.8c.4.3.9.3 1.3 0 .3-.4.3-.9 0-1.3L52 25.5l2.8 1.7c.4.3 1 .1 1.2-.3s.1-1-.4-1.2zM7.6 24l.4-.3v.4l-.2.6-.2-.4V24zm5.1 9.5l-1.6-2.9.3-1.3v-.4l2.1-5.9c.1-.3 0-.7-.2-.9V22c.2-.4 0-1-.4-1.2-.1-.1-.3-.1-.4-.1L17 18c.4.3.9.3 1.3-.1L20 16l3.4-.4c.5-.1.8-.5.8-1-.1-.5-.5-.8-1-.8l-1.4.2 1-1.1c.2.1.4.2.7.2l7.7-1.3.7.1 7 5.2c.1.2.2.4.4.5l.4.2c-.2 0-.3.1-.5.2-.4.3-.4.9-.1 1.2l4.5 5.2c-.2-.1-.4-.2-.6-.1-.5.1-.8.5-.8 1l.7 5.4-.4.9-2.7 2.9c-.1-.1-.2-.1-.3-.2-.5-.2-1 0-1.2.5l-.9 2.2-.9 1c-.2.2-.2.5-.2.7l-.6.4c-.4.3-.5.8-.3 1.2 0 .1.1.1.1.1l-.9.6-6.9-.5c-.4 0-.8.2-.9.6l-6.4.8c-.3-.1-.5 0-.8.1h-.9l-.5-.4c-.2-.2-.6-.3-.9-.2l-3-7c-.2-.4-.7-.7-1.2-.5-.1.1-.2.1-.3.2.1-.2.1-.4-.1-.6zm-2.8-8.6v-.2l.4-1.5 1.3-1.7-1.7 3.4zm5.8-8.4c.1 0 .1 0 0 0l.3-.1-.7.5.4-.4zm1.9-2l2.1-.8-.5.6-1.6.2zm4.2-3.1c-.2-.1-.5-.2-.7-.1l-2.2.8 1.8-2.4c.1.1.2.1.4.2l1.8.3-1.1 1.2zm3.1-.7l1.2.2-1.6.3.4-.5zm2.8 31.5h.5l-.7.2c.1 0 .2-.1.2-.2zm-1.1 5.1l-.2.1-.1-.1h.3zm.5-1.8v-.3l1.5.5-1.5-.2zm3.6-2.5s0 .1.1.1h-.4c.1-.2.1-.4.1-.7h.3c-.1.2-.1.4-.1.6zM26 43l-.2-.1.7-.1-.5.2zm5.9 2l-.6-.2h.5c.5 0 .9-.4.8-.9 0-.2-.1-.3-.2-.4l2.3-.6h.5l-.4 1-2.9 1.1zm9.9-6.2l1-1-.2.9-.9.3.1-.2zm-.9 2.2l1.1-.3-1.2.5.1-.2zm-4.6 4.1zm7.6-22.9l-1.8-2.1 1.9 2-.1.1zM10.8 17zm-.2 16.5v-.1l.2.4-.2-.3zm1.8 1.2c.1-.1.2-.1.2-.2-.1.2-.1.4 0 .6l.9 2-1.9-2.4c.3.1.5.1.8 0zm9.2 12.4l1.3 1.2h-1.2l-1-1 .9-.2zm9.6 2.6c.1-.1.1-.3.1-.4v-.1l1.5-.4-.4 1-1.2-.1zm-.3-41.9l-1-.2-.1-.1h.2l.6.1.3.2zM7 26.9l-.5 1.4.4-1.5.1.1zm3.8 9.6l4.7 5.9-3.4-3.2-1.3-2.7zm36.1-5v-.3l.7-2.1.2.2-.1 1.5-.8.7zm-5.8-16.3zM16.4 45.7l.5.5-.2.1-.8-.5.5-.1zm31.2-9.6l-.6.5v-.4l.5-1.2v.2c0 .2.1.4.1.5v.4zm-.3-21.8l-1.1 4.4.6-4.5.5.1zm-2.8 4.1l-.8-.7c.2 0 .4-.1.6-.2.4-.3.4-.9.1-1.2l-1.5-1.8c.1-.3-.1-.7-.3-.9l-1.2-.9-.1-.1 3.9 1-.7 4.8zM36.3 6.1c.1 0 .3-.1.4-.2l.2.7-1-.1-.2-.2.6-.2zm-5-.7l-.6-.5 1.1-.4.6.7-1.1.2zm-12.8.9c.1.3.3.5.6.6l.3.1-1.3.7h-.2l.6-1.4zm-13.8 13l2.7-1 .1 1.6-.1.1c-.4 0-.7.3-.8.6v.1l-.9.8-1-2.2zm-2.1 9.4L4 27.4l.3 2.1-.3 1-1.4-1.8zM9 39.3l2.6 3.2.2.2.1.1-.7.2-2.7-1.6.5-2.1zm38.1 1.2v-1.2h.2l-.2 1.2zM51 33l-1.5 1.3.2-1.6.7-.5.6.8z"/></svg>