<svg xmlns="http://www.w3.org/2000/svg" width="1200" height="600"><g opacity=".4"><rect fill="#ed6c22" x="1195.415" y="458.497" width="3.048" height="125.832" rx="1.524" ry="1.524" transform="rotate(111.473 1196.939 521.413)" data-cx="1196.939" data-cy="521.413" data-angle="1.571"/><rect fill="#ed6c22" x="1010.568" y="6.756" width="3.511" height="187.509" rx="1.755" ry="1.755" transform="rotate(84.62 1012.323 100.51)" data-cx="1012.323" data-cy="100.51" data-angle="1.571"/><rect fill="#ed6c22" x="154.999" y="62.245" width="3.653" height="251.279" rx="1.826" ry="1.826" transform="rotate(145.9 156.825 187.885)" data-cx="156.825" data-cy="187.885" data-angle="1.571"/><rect fill="#14c0ff" x="1034.309" y="-28.068" width="2.071" height="222.625" rx="1.035" ry="1.035" transform="rotate(101.008 1035.345 83.244)" data-cx="1035.345" data-cy="83.244" data-angle="1.571"/><rect fill="#ed6c22" x="510.975" y="192.497" width="2.022" height="250.616" rx="1.011" ry="1.011" transform="rotate(143.138 511.986 317.804)" data-cx="511.986" data-cy="317.804" data-angle="1.571"/><rect fill="#ed6c22" x="411.437" y="-3.447" width="2.696" height="210.762" rx="1.348" ry="1.348" transform="rotate(145.285 412.785 101.935)" data-cx="412.785" data-cy="101.935" data-angle="1.571"/><rect fill="#14c0ff" x="120.537" y="313.585" width="2.073" height="138.198" rx="1.037" ry="1.037" transform="rotate(102.02 121.574 382.684)" data-cx="121.574" data-cy="382.684" data-angle="1.571"/><rect fill="#ed6c22" x="659.535" y="59.303" width="2.247" height="160.998" rx="1.123" ry="1.123" transform="rotate(50.674 660.659 139.802)" data-cx="660.659" data-cy="139.802" data-angle="1.571"/><rect fill="#ed6c22" x="34.59" y="248.588" width="2.095" height="141.766" rx="1.047" ry="1.047" transform="rotate(138.567 35.638 319.47)" data-cx="35.638" data-cy="319.47" data-angle="1.571"/><rect fill="#14c0ff" x="989.056" y="491.392" width="3.523" height="114.039" rx="1.761" ry="1.761" transform="rotate(143.84 990.817 548.412)" data-cx="990.817" data-cy="548.412" data-angle="1.571"/><rect fill="#ed6c22" x="464.015" y="188.068" width="2.251" height="241.196" rx="1.126" ry="1.126" transform="rotate(73.961 465.14 308.666)" data-cx="465.14" data-cy="308.666" data-angle="1.571"/><rect fill="#ed6c22" x="893.829" y="123.095" width="3.44" height="309.933" rx="1.72" ry="1.72" transform="rotate(120.28 895.549 278.062)" data-cx="895.549" data-cy="278.062" data-angle="1.571"/><rect fill="#14c0ff" x="486.075" y="422.651" width="2.473" height="216.122" rx="1.236" ry="1.236" transform="rotate(121.076 487.312 530.712)" data-cx="487.312" data-cy="530.712" data-angle="1.571"/><rect fill="#14c0ff" x="613.048" y="211.873" width="3.145" height="236.101" rx="1.572" ry="1.572" transform="rotate(56.386 614.62 329.923)" data-cx="614.621" data-cy="329.923" data-angle="1.571"/><rect fill="#ed6c22" x="536.038" y="401.496" width="3.306" height="191.713" rx="1.653" ry="1.653" transform="rotate(92.766 537.69 497.352)" data-cx="537.691" data-cy="497.352" data-angle="1.571"/><rect fill="#ed6c22" x="896.336" y="157.439" width="2.119" height="188.642" rx="1.059" ry="1.059" transform="rotate(71.352 897.396 251.76)" data-cx="897.396" data-cy="251.76" data-angle="1.571"/><rect fill="#ed6c22" x="800.65" y="247.021" width="2.66" height="245.755" rx="1.33" ry="1.33" transform="rotate(80.298 801.98 369.899)" data-cx="801.98" data-cy="369.899" data-angle="1.571"/><rect fill="#ed6c22" x="625.517" y="464.001" width="3.822" height="231.736" rx="1.911" ry="1.911" transform="rotate(49.659 627.428 579.869)" data-cx="627.428" data-cy="579.869" data-angle="1.571"/><rect fill="#14c0ff" x="528.508" y="-11.411" width="3.775" height="120.198" rx="1.888" ry="1.888" transform="rotate(139.584 530.395 48.687)" data-cx="530.395" data-cy="48.687" data-angle="1.571"/><rect fill="#ed6c22" x="887.551" y="428.195" width="2.881" height="245.945" rx="1.44" ry="1.44" transform="rotate(118.228 888.992 551.167)" data-cx="888.992" data-cy="551.167" data-angle="1.571"/><rect fill="#ed6c22" x="846.454" y="219.131" width="3.911" height="139.719" rx="1.955" ry="1.955" transform="rotate(57.601 848.409 288.99)" data-cx="848.409" data-cy="288.991" data-angle="1.571"/><rect fill="#ed6c22" x="160.308" y="323.583" width="3.366" height="230.502" rx="1.683" ry="1.683" transform="rotate(137.478 161.99 438.834)" data-cx="161.991" data-cy="438.834" data-angle="1.571"/><rect fill="#ed6c22" x="520.238" y="57.117" width="2.767" height="271.193" rx="1.384" ry="1.384" transform="rotate(34.27 521.621 192.714)" data-cx="521.621" data-cy="192.714" data-angle="1.571"/><rect fill="#ed6c22" x="369.681" y="347.782" width="3.872" height="181.224" rx="1.936" ry="1.936" transform="rotate(118.578 371.617 438.394)" data-cx="371.617" data-cy="438.394" data-angle="1.571"/><rect fill="#ed6c22" x="1022.631" y="322.792" width="3.819" height="182.111" rx="1.909" ry="1.909" transform="rotate(66.232 1024.54 413.848)" data-cx="1024.54" data-cy="413.848" data-angle="1.571"/><rect fill="#14c0ff" x="928.034" y="162.78" width="3.183" height="292.007" rx="1.592" ry="1.592" transform="rotate(35.921 929.625 308.784)" data-cx="929.625" data-cy="308.784" data-angle="1.571"/><rect fill="#ed6c22" x="46.968" y="418.767" width="3.88" height="166.248" rx="1.94" ry="1.94" transform="rotate(101.207 48.908 501.89)" data-cx="48.908" data-cy="501.891" data-angle="1.571"/><rect fill="#ed6c22" x="83.36" y="271.2" width="2.166" height="246.162" rx="1.083" ry="1.083" transform="rotate(136.616 84.443 394.28)" data-cx="84.443" data-cy="394.281" data-angle="1.571"/><rect fill="#ed6c22" x="346.392" y="57.091" width="3.708" height="244.936" rx="1.854" ry="1.854" transform="rotate(108.502 348.246 179.56)" data-cx="348.246" data-cy="179.56" data-angle="1.571"/></g></svg>